<?xml version="1.0" standalone="no"?>
<!DOCTYPE svg PUBLIC "-//W3C//DTD SVG 20010904//EN"
 "http://www.w3.org/TR/2001/REC-SVG-20010904/DTD/svg10.dtd">
<svg version="1.0" xmlns="http://www.w3.org/2000/svg"
 width="600.000000pt" height="600.000000pt" viewBox="0 0 600.000000 600.000000"
 preserveAspectRatio="xMidYMid meet">
<metadata>
Created by potrace 1.11, written by Peter Selinger 2001-2013
</metadata>
<g transform="translate(0.000000,600.000000) scale(0.100000,-0.100000)"
fill="#000000" stroke="none">
<path d="M400 3000 l0 -2600 2600 0 2600 0 0 2600 0 2600 -2600 0 -2600 0 0
-2600z m4800 2300 l0 -100 -100 0 -100 0 0 -100 0 -100 -100 0 -100 0 0 -100
0 -100 -100 0 -100 0 0 -100 0 -100 -100 0 -100 0 0 -200 0 -200 100 0 100 0
0 -100 0 -100 100 0 100 0 0 -100 0 -100 100 0 100 0 0 -500 0 -500 -100 0
-100 0 0 -100 0 -100 -100 0 -100 0 0 -100 0 -100 -100 0 -100 0 0 -100 0
-100 -100 0 -100 0 0 -100 0 -100 400 0 400 0 0 -500 0 -500 -1400 0 -1400 0
0 400 0 400 100 0 100 0 0 100 0 100 100 0 100 0 0 100 0 100 100 0 100 0 0
100 0 100 100 0 100 0 0 100 0 100 100 0 100 0 0 100 0 100 100 0 100 0 0 100
0 100 100 0 100 0 0 100 0 100 100 0 100 0 0 100 0 100 -200 0 -200 0 0 -100
0 -100 -100 0 -100 0 0 -100 0 -100 -200 0 -200 0 0 -100 0 -100 -100 0 -100
0 0 -100 0 -100 -100 0 -100 0 0 -100 0 -100 -100 0 -100 0 0 -100 0 -100
-100 0 -100 0 0 -100 0 -100 -100 0 -100 0 0 -100 0 -100 -100 0 -100 0 0
-100 0 -100 -100 0 -100 0 0 -100 0 -100 -100 0 -100 0 0 -100 0 -100 -100 0
-100 0 0 -100 0 -100 -100 0 -100 0 0 -100 0 -100 -100 0 -100 0 0 2300 0
2300 2300 0 2300 0 0 -100z"/>
<path d="M800 4600 l0 -600 100 0 100 0 0 200 0 200 100 0 100 0 0 -100 0
-100 100 0 100 0 0 -100 0 -100 100 0 100 0 0 100 0 100 -100 0 -100 0 0 200
0 200 100 0 100 0 0 200 0 200 -100 0 -100 0 0 100 0 100 -300 0 -300 0 0
-600z m600 200 l0 -200 -200 0 -200 0 0 200 0 200 200 0 200 0 0 -200z"/>
<path d="M2000 5100 l0 -100 -100 0 -100 0 0 -400 0 -400 100 0 100 0 0 -100
0 -100 200 0 200 0 0 100 0 100 100 0 100 0 0 200 0 200 -200 0 -200 0 0 -100
0 -100 100 0 100 0 0 -100 0 -100 -200 0 -200 0 0 400 0 400 200 0 200 0 0
-100 0 -100 100 0 100 0 0 100 0 100 -100 0 -100 0 0 100 0 100 -200 0 -200 0
0 -100z"/>
<path d="M3000 4100 l0 -100 -100 0 -100 0 0 -100 0 -100 -100 0 -100 0 0
-100 0 -100 -100 0 -100 0 0 -200 0 -200 300 0 300 0 0 100 0 100 100 0 100 0
0 100 0 100 400 0 400 0 0 -100 0 -100 100 0 100 0 0 -100 0 -100 -100 0 -100
0 0 -100 0 -100 -100 0 -100 0 0 -100 0 -100 -100 0 -100 0 0 -100 0 -100
-100 0 -100 0 0 -100 0 -100 -100 0 -100 0 0 -100 0 -100 -100 0 -100 0 0
-100 0 -100 -100 0 -100 0 0 -100 0 -100 -100 0 -100 0 0 -100 0 -100 -100 0
-100 0 0 -200 0 -200 1200 0 1200 0 0 300 0 300 -600 0 -600 0 0 100 0 100
100 0 100 0 0 100 0 100 100 0 100 0 0 100 0 100 100 0 100 0 0 100 0 100 100
0 100 0 0 100 0 100 100 0 100 0 0 100 0 100 100 0 100 0 0 300 0 300 -100 0
-100 0 0 100 0 100 -100 0 -100 0 0 100 0 100 -100 0 -100 0 0 100 0 100 -600
0 -600 0 0 -100z"/>
</g>
</svg>
